<svg width="256" height="99" viewBox="0 0 256 99" fill="none" xmlns="http://www.w3.org/2000/svg">
<g clip-path="url(#clip0)">
<path fill-rule="evenodd" clip-rule="evenodd" d="M227.274 24.744C227.058 27.6293 225.829 29.9195 224.527 28.7219C223.641 27.796 222.975 22.9782 225.429 17.4811C226.45 19.1038 227.498 21.8936 227.274 24.744ZM245.164 1.52413C237.557 -2.8928 229.093 5.75688 224.872 13.3545C222.624 11.1585 221.089 9.50696 218.592 7.84484C216.928 6.73779 215.011 5.66009 211.535 4.28644C196.305 -1.61905 178.534 10.0558 187.556 25.9522C191.233 32.6113 200.276 40.7527 205.68 45.6173C207.381 47.2414 209.103 48.6862 210.463 47.3819C211.217 46.4359 210.089 45.5099 208.314 44.0251C199.292 36.814 192.465 29.9614 189.582 25.226C179.271 6.50489 208.165 -4.31204 223.621 15.4574C213.457 38.8521 237.855 34.5207 226.679 15.3057C229.488 9.92593 232.756 6.45182 234.764 5.0432C242.8 -0.593174 247.701 4.82903 247.883 13.3832C247.966 17.2713 246.826 21.8068 244.998 26.245C243.069 31.0965 240.415 34.5275 238.282 37.2848C232.952 45.0735 217.263 57.0636 213.101 60.0663C211.773 61.0504 210.705 62.4384 211.912 63.2195C211.912 63.2195 211.912 63.2195 211.912 63.2201C212.795 63.5392 213.529 62.9104 214.416 62.2736C226.561 53.1943 248.509 36.0479 250.269 16.1211C250.897 9.18478 249.036 3.86372 245.164 1.52413Z" fill="#DEA52E"/>
<path fill-rule="evenodd" clip-rule="evenodd" d="M105.55 78.0207C105.55 81.305 104.158 83.1887 101.731 83.1887H96.743V72.089H101.731C104.644 72.0428 105.731 74.6796 105.55 78.0207ZM112.749 76.6277C112.749 70.3863 108.527 66.5088 101.731 66.5088H89.5444V97.3562H96.743V88.679H101.731C109.684 88.6322 113.28 83.7476 112.749 76.6277Z" fill="#0F192C"/>
<path fill-rule="evenodd" clip-rule="evenodd" d="M43.4713 87.326C43.4576 94.4315 33.5728 93.8964 33.8551 87.326V76.5802C33.5728 70.0104 43.4569 69.4734 43.4713 76.5802V87.326ZM50.6699 76.0407C50.7717 62.5445 26.5079 62.5839 26.6115 76.0407V87.8654C26.6115 93.8496 31.5673 98.0293 38.6635 98.0293C45.7328 98.0293 50.6699 93.8496 50.6699 87.8654V76.0407Z" fill="#0F192C"/>
<path fill-rule="evenodd" clip-rule="evenodd" d="M85.5564 97.3562V66.5088H78.0563L69.9991 82.1154L61.8508 66.5088H54.3494V97.3562H61.3644L61.1266 77.5124L67.4566 89.6687H72.4674L78.7793 77.5237L78.5414 97.3562H85.5564Z" fill="#0F192C"/>
<path fill-rule="evenodd" clip-rule="evenodd" d="M124.387 74.2606L127.826 85.7069H121.102L124.387 74.2606ZM129.391 90.8825L131.369 97.3562H138.923L127.95 66.5088H121.154L110.312 97.3562H117.774L119.617 90.8825H129.391Z" fill="#0F192C"/>
<path fill-rule="evenodd" clip-rule="evenodd" d="M216.736 66.5519H209.537V87.326C209.537 90.5622 207.908 92.4934 205.179 92.4934C202.45 92.4934 200.82 90.5622 200.82 87.326V66.5519H193.622V87.9104C193.622 94.0569 198.158 98.0293 205.179 98.0293C212.2 98.0293 216.736 94.0569 216.736 87.9104V66.5519Z" fill="#0F192C"/>
<path fill-rule="evenodd" clip-rule="evenodd" d="M23.0693 86.0198H15.9157V88.4948C15.9157 90.86 14.1643 92.4491 11.5568 92.4491C8.86884 92.4491 7.1986 90.4854 7.1986 87.326V76.5808C7.1986 73.4208 8.86884 71.4577 11.5568 71.4577C14.1643 71.4577 15.9157 73.0468 15.9157 75.4114V77.6173H23.0693V74.8725C23.0693 69.6863 18.2278 65.9225 11.5568 65.9225C4.64422 65.9225 0 69.9892 0 76.0414V87.8654C0 93.9445 4.64422 98.0293 11.5568 98.0293C18.2278 98.0293 23.0693 94.2467 23.0693 89.0343V86.0198Z" fill="#0F192C"/>
<path fill-rule="evenodd" clip-rule="evenodd" d="M163.322 87.73C163.322 81.4686 157.363 79.5529 152.363 79.0491C149.833 78.7824 147.136 78.2598 147.136 75.4114C147.046 73.4789 148.291 71.6126 151.315 71.592C154.946 71.6201 155.942 74.3374 155.809 76.8524H162.737C163.014 71.6325 160.391 66.1879 151.315 66.0565C143.794 66.0193 139.787 69.8243 140.163 75.9958C140.163 81.2413 143.925 84.2833 151.347 85.037C153.494 85.263 156.349 85.848 156.349 88.315C156.475 90.7901 154.653 92.456 151.72 92.4485C148.049 92.4066 146.348 89.7205 146.552 87.0987H139.578C139.09 93.6173 143.803 98.0499 151.72 98.0296C159.626 98.068 163.759 94.1193 163.322 87.73Z" fill="#0F192C"/>
<path fill-rule="evenodd" clip-rule="evenodd" d="M190.206 87.73C190.206 81.4686 184.246 79.5529 179.247 79.0491C176.717 78.7824 174.02 78.2598 174.02 75.4114C173.93 73.4789 175.175 71.6126 178.198 71.592C181.829 71.6201 182.826 74.3374 182.692 76.8524H189.621C189.897 71.6325 187.275 66.1879 178.198 66.0565C170.678 66.0193 166.671 69.8243 167.046 75.9958C167.046 81.2413 170.809 84.2833 178.23 85.037C180.378 85.263 183.232 85.848 183.232 88.315C183.359 90.7901 181.537 92.456 178.603 92.4485C174.932 92.4066 173.231 89.7205 173.436 87.0987H166.462C165.974 93.6173 170.687 98.0499 178.603 98.0296C186.51 98.068 190.643 94.1193 190.206 87.73Z" fill="#0F192C"/>
<path fill-rule="evenodd" clip-rule="evenodd" d="M243.751 87.73C243.751 81.4686 237.792 79.5529 232.793 79.0491C230.263 78.7824 227.565 78.2598 227.565 75.4114C227.476 73.4789 228.72 71.6126 231.744 71.592C235.375 71.6201 236.372 74.3374 236.238 76.8524H243.167C243.443 71.6325 240.821 66.1879 231.744 66.0565C224.223 66.0193 220.216 69.8243 220.592 75.9958C220.592 81.2413 224.355 84.2833 231.776 85.037C233.923 85.263 236.778 85.848 236.778 88.315C236.904 90.7901 235.083 92.456 232.149 92.4485C228.477 92.4066 226.777 89.7205 226.981 87.0987H220.008C219.519 93.6173 224.232 98.0499 232.149 98.0296C240.054 98.068 244.188 94.1193 243.751 87.73Z" fill="#0F192C"/>
<path fill-rule="evenodd" clip-rule="evenodd" d="M251.935 70.2607H250.69V68.7123H251.935C252.373 68.7123 252.709 69.0494 252.709 69.4865C252.709 69.9242 252.373 70.2607 251.935 70.2607ZM253.45 69.4865C253.45 68.6792 252.81 68.0398 251.935 68.0398H249.95V72.7508H250.69V70.9332H251.767L252.776 72.7508H253.584L252.508 70.8664C252.508 70.8664 253.45 70.5299 253.45 69.4865Z" fill="#0F192C"/>
<path fill-rule="evenodd" clip-rule="evenodd" d="M251.523 74.1988C249.435 74.1988 247.736 72.4998 247.736 70.4119C247.736 68.3233 249.435 66.6243 251.523 66.6243C253.612 66.6243 255.311 68.3233 255.311 70.4119C255.311 72.4998 253.612 74.1988 251.523 74.1988ZM251.523 66.063C249.125 66.063 247.175 68.0136 247.175 70.4119C247.175 72.8095 249.125 74.7601 251.523 74.7601C253.921 74.7601 255.871 72.8095 255.871 70.4119C255.871 68.0136 253.921 66.063 251.523 66.063Z" fill="#0F192C"/>
</g>
<defs>
<clipPath id="clip0">
<rect width="256" height="98.0293" fill="white"/>
</clipPath>
</defs>
</svg>
