<svg width="256" height="130" viewBox="0 0 256 130" fill="none" xmlns="http://www.w3.org/2000/svg">
<path d="M121.749 28.0806H120.955V26.5923H121.749H143.876C144.372 26.5923 144.67 26.8899 144.67 27.3861C144.67 41.8729 134.35 53.4822 121.749 53.4822C109.048 53.4822 98.6295 41.8729 98.6295 27.3861C98.6295 12.8992 109.048 1.28993 121.749 1.28993C130.381 1.19071 138.518 6.54885 141.495 12.4031L141.991 13.5938H140.304L140.105 13.1969C137.228 7.64032 129.786 2.7783 121.749 2.87753C109.842 2.87753 100.217 13.8915 100.217 27.4853C100.217 41.0791 109.842 52.093 121.749 52.093C133.557 52.093 143.181 41.0791 143.181 28.2791H121.749V28.0806V28.0806Z" fill="#404349"/>
<path d="M128.397 28.0806H127.603V26.5923H128.397H150.524C151.02 26.5923 151.318 26.8899 151.318 27.3861C151.318 41.8729 140.998 53.4822 128.397 53.4822C115.696 53.4822 105.278 41.8729 105.278 27.3861C105.278 12.8992 115.696 1.28993 128.397 1.28993C137.029 1.19071 145.166 6.54885 148.143 12.4031L148.639 13.5938H146.952L146.753 13.1969C143.876 7.64032 136.335 2.67908 128.298 2.7783C116.391 2.7783 106.766 13.7923 106.766 27.3861C106.766 40.9799 116.391 51.9938 128.298 51.9938C140.105 51.9938 149.73 40.9799 149.73 28.1799L128.397 28.0806Z" fill="#404349"/>
<path d="M134.549 28.0806H133.755V26.5923H134.549H156.676C157.172 26.5923 157.47 26.8899 157.47 27.3861C157.47 41.8729 147.15 53.4822 134.549 53.4822C121.848 53.4822 111.429 41.8729 111.429 27.3861C111.429 12.8992 121.848 1.28993 134.549 1.28993C143.181 1.19071 151.318 6.54885 154.295 12.4031L154.791 13.5938H153.104L152.905 13.1969C150.028 7.64032 142.586 2.7783 134.549 2.87753C122.642 2.87753 113.017 13.8915 113.017 27.4853C113.017 41.0791 122.642 52.093 134.549 52.093C146.357 52.093 155.981 41.0791 155.981 28.2791H134.549V28.0806V28.0806Z" fill="#404349"/>
<path d="M15.2806 103.095C13.693 103.69 12.2047 103.988 10.8155 103.988C8.03721 103.988 5.65581 103.095 3.86977 101.209C1.9845 99.324 1.09147 96.9426 1.09147 94.1643C1.09147 91.386 1.9845 89.0047 3.77054 86.8217C5.55659 84.6388 7.93798 83.6465 11.014 83.6465C13.5938 83.6465 16.1736 84.8372 17.9597 86.9209L17.662 87.2186L16.3721 88.5085C15.6775 87.5163 15.4791 87.2186 15.1814 86.9209C14.0899 85.9287 12.8 85.4326 11.3116 85.4326C9.72403 85.4326 8.33488 86.0279 7.24341 87.2186C6.15194 88.3101 5.45736 90.3938 5.45736 93.6682C5.45736 96.8434 6.05271 99.0264 7.14419 100.217C8.23566 101.408 9.62481 102.003 11.3116 102.003C12.2047 102.003 12.8992 101.805 13.5938 101.507C14.2884 101.209 14.6853 100.812 14.8837 100.316C15.0822 99.9194 15.1814 99.324 15.1814 98.5302V94.5612H18.8527V98.1333V99.1256C18.7535 99.8202 18.3566 100.713 17.3643 101.606C16.6698 102.202 15.876 102.797 15.2806 103.095Z" fill="#404349"/>
<path d="M28.0806 103.988V98.431V89.0046V83.6465H32.0496V89.0046V98.431V103.988H28.0806Z" fill="#404349"/>
<path d="M41.9721 103.988V98.431V89.0046V83.6465H45.9411V102.202H56.4589V104.087L41.9721 103.988Z" fill="#404349"/>
<path d="M67.969 103.988H64.0992V98.6295V89.3023V83.6465H68.5643C70.5488 83.6465 72.1364 83.845 73.2279 84.1426C74.4186 84.4403 75.3116 85.1349 76.1054 86.0279C76.8992 86.9209 77.1969 88.1116 77.1969 89.4015C77.1969 90.5922 76.9984 91.4853 76.4031 92.3783C75.907 93.2713 75.1132 93.9659 74.2202 94.3628C73.2279 94.8589 71.5411 94.9581 69.3581 94.9581H67.8698V98.5302L67.969 103.988ZM68.862 85.7302C68.5643 85.7302 68.2667 85.7302 67.969 85.7302V93.1721H68.6636C69.755 93.1721 70.5488 93.1721 71.1442 92.9736C71.7395 92.7752 72.1364 92.4775 72.5333 91.9814C72.9302 91.4853 73.1287 90.6915 73.1287 89.6992C73.1287 88.2109 72.7318 87.2186 72.1364 86.7225C71.5411 86.0279 70.5488 85.7302 68.862 85.7302Z" fill="#404349"/>
<path d="M86.2263 103.988V98.431V89.0046V83.6465H90.1953V89.0046V98.431V103.988H86.2263Z" fill="#404349"/>
<path d="M114.307 103.988L101.805 87.5163V98.7287V103.491H100.019V98.7287V88.8062V83.6465H103.789L113.712 96.9426V87.6155V83.6465H115.696V87.814V103.988H114.307V103.988Z" fill="#404349"/>
<path d="M143.281 85.5318H141.395V89.1039V89.6992V92.4775H142.685H146.853V94.2636H142.784H141.395V96.0496V96.5457V97.2403V98.5302V103.988H137.426V98.5302V97.2403V96.0496V89.0046V83.6465H149.73V85.4326L143.281 85.5318Z" fill="#404349"/>
<path d="M165.705 103.988C164.614 101.11 164.118 100.118 164.118 100.118L162.828 96.9426H156.676L153.997 103.988H151.715L160.05 83.6465H161.34L169.972 103.988H165.705V103.988ZM159.653 89.3023L157.271 95.1566H162.034L159.653 89.3023Z" fill="#404349"/>
<path d="M178.902 101.309C177.116 99.5225 176.223 97.0419 176.223 94.1643C176.223 92.2791 176.62 90.493 177.513 88.707C178.307 87.0202 179.498 85.7302 180.986 84.8372C182.474 84.0434 184.062 83.6465 185.848 83.6465C187.336 83.6465 188.626 83.9442 189.817 84.5395C190.909 85.1349 191.802 85.7302 192.595 86.6233L192.695 87.2186L191.405 88.4093C190.71 87.4171 190.412 87.1194 190.115 86.8217C189.023 85.9287 187.634 85.5318 186.245 85.5318C184.459 85.5318 183.169 86.2264 182.078 87.6155C181.085 89.0047 180.49 91.1876 180.49 93.9659C180.49 96.645 181.085 98.6295 182.177 99.9194C183.268 101.309 184.657 101.904 186.344 101.904C187.237 101.904 188.13 101.705 189.122 101.209C189.817 100.912 190.412 100.316 191.305 99.0264L192.794 100.515C190.71 102.896 188.428 103.988 185.749 103.988C183.07 103.988 180.788 103.095 178.902 101.309Z" fill="#404349"/>
<path d="M201.129 103.988V98.431V89.0046V83.6465H205.098V89.0046V98.431V103.988H201.129Z" fill="#404349"/>
<path d="M227.919 103.988C226.828 101.11 226.332 100.118 226.332 100.118L225.042 96.9426H218.89L216.211 103.988H213.929L222.264 83.6465H223.553L232.186 103.988H227.919V103.988ZM221.867 89.3023L219.485 95.1566H224.248L221.867 89.3023Z" fill="#404349"/>
<path d="M240.521 103.988V98.431V89.0046V83.6465H244.49V102.202H255.008V104.087L240.521 103.988Z" fill="#404349"/>
<path d="M1.88527 118.574H6.05271C7.34264 118.574 8.33489 118.871 9.02946 119.467C9.72403 120.062 10.1209 120.856 10.1209 121.947C10.1209 122.543 10.0217 123.039 9.82326 123.436C9.62481 123.833 9.32713 124.229 9.02946 124.527C8.63256 124.825 8.23566 125.023 7.73954 125.222C7.24341 125.42 6.64806 125.42 6.05271 125.42H3.27442V128.595H1.88527V118.574ZM8.73178 121.947C8.73178 121.253 8.53333 120.657 8.03721 120.36C7.54109 120.062 6.94574 119.864 6.15194 119.864H3.27442V124.229H6.05271C6.84651 124.229 7.54109 124.031 7.93799 123.733C8.43411 123.336 8.73178 122.741 8.73178 121.947Z" fill="#404349"/>
<path d="M16.0744 128.595V118.574H17.4636V127.305H23.2186V128.595H16.0744V128.595Z" fill="#404349"/>
<path d="M32.5457 118.574H32.8434L37.8046 128.595H36.2171L35.4233 127.008H29.9659L29.1721 128.595H27.5845L32.5457 118.574ZM32.8434 121.253H32.645L30.6605 125.519L30.5612 125.718H34.8279L34.7287 125.519L32.8434 121.253Z" fill="#404349"/>
<path d="M43.262 126.512C43.4605 126.71 43.7581 126.909 44.0558 127.008C44.3535 127.107 44.6512 127.206 44.9488 127.305C45.3457 127.405 45.7426 127.504 46.2388 127.504C47.1318 127.504 47.7271 127.405 48.0248 127.107C48.4217 126.809 48.6202 126.412 48.6202 125.916C48.6202 125.718 48.6202 125.519 48.5209 125.321C48.4217 125.122 48.3225 125.023 48.124 124.825C47.9256 124.726 47.6279 124.527 47.3302 124.428C47.0326 124.329 46.5364 124.13 46.0403 124.031C45.445 123.833 44.9488 123.733 44.4527 123.535C44.0558 123.336 43.6589 123.138 43.3612 122.94C43.0636 122.741 42.8651 122.443 42.7659 122.146C42.6667 121.848 42.5674 121.55 42.5674 121.153C42.5674 120.26 42.8651 119.566 43.5597 119.169C44.2543 118.673 45.1473 118.474 46.338 118.474C46.9333 118.474 47.5287 118.574 47.9256 118.673C48.4217 118.772 48.7194 118.871 49.0171 118.971C49.3147 119.07 49.6124 119.268 49.9101 119.467L49.1163 120.558C48.9178 120.459 48.7194 120.26 48.4217 120.161C48.2233 120.062 47.9256 119.963 47.5287 119.864C47.1318 119.764 46.7349 119.764 46.338 119.764C45.6434 119.764 45.1473 119.864 44.6512 120.161C44.155 120.459 44.0558 120.757 44.0558 121.253C44.0558 121.451 44.0558 121.65 44.155 121.749C44.2543 121.848 44.3535 122.047 44.5519 122.146C44.7504 122.245 45.0481 122.443 45.3457 122.543C45.6434 122.642 46.1395 122.84 46.6357 122.94C47.3302 123.138 47.8264 123.336 48.3225 123.535C48.7194 123.733 49.1163 123.932 49.414 124.229C49.7116 124.527 49.9101 124.726 50.0093 125.023C50.1085 125.321 50.2078 125.718 50.2078 126.016C50.2078 126.412 50.1085 126.809 50.0093 127.206C49.8109 127.603 49.6124 127.901 49.3147 128.099C49.0171 128.397 48.6202 128.595 48.124 128.695C47.6279 128.893 47.0326 128.893 46.4372 128.893C45.7426 128.893 45.2465 128.794 44.7504 128.695C44.2543 128.595 43.8574 128.397 43.5597 128.298C43.1628 128.099 42.8651 127.901 42.6667 127.702L43.262 126.512Z" fill="#404349"/>
<path d="M55.169 118.574H63.5039V119.864H60.031V128.595H58.6419V119.864H55.169V118.574Z" fill="#404349"/>
<path d="M70.6481 128.595H69.2589V118.574H70.6481V128.595Z" fill="#404349"/>
<path d="M85.5318 127.504C85.3333 127.702 85.0357 127.901 84.6388 128.099C84.3411 128.298 83.9442 128.397 83.5473 128.496C83.1504 128.595 82.555 128.695 81.9597 128.695C81.1659 128.695 80.4713 128.595 79.7767 128.298C79.1814 128 78.586 127.702 78.0899 127.206C77.5938 126.71 77.2961 126.214 76.9984 125.519C76.7008 124.825 76.6015 124.229 76.6015 123.535C76.6015 122.84 76.7008 122.146 76.9984 121.451C77.2961 120.856 77.5938 120.26 78.0899 119.764C78.586 119.268 79.0822 118.971 79.7767 118.673C80.3721 118.375 81.1659 118.276 81.9597 118.276C82.555 118.276 83.0512 118.375 83.5473 118.474C83.9442 118.574 84.3411 118.772 84.6388 118.871C84.9364 119.07 85.2341 119.268 85.5318 119.467L84.738 120.558C84.5395 120.36 84.2419 120.161 84.0434 120.062C83.845 119.963 83.5473 119.864 83.2496 119.665C82.9519 119.566 82.555 119.467 82.1581 119.467C81.5628 119.467 81.0667 119.566 80.5705 119.764C80.0744 119.963 79.6775 120.26 79.3798 120.558C79.0822 120.955 78.7845 121.352 78.586 121.848C78.3876 122.344 78.2884 122.84 78.2884 123.336C78.2884 123.833 78.3876 124.428 78.586 124.825C78.7845 125.321 79.0822 125.718 79.3798 126.115C79.6775 126.512 80.0744 126.71 80.5705 126.909C81.0667 127.107 81.5628 127.206 82.1581 127.206C82.555 127.206 82.9519 127.107 83.2496 127.008C83.5473 126.909 83.845 126.809 84.0434 126.611C84.3411 126.512 84.5395 126.313 84.738 126.115L85.5318 127.504Z" fill="#404349"/>
<path d="M91.5845 126.512C91.783 126.71 92.0806 126.909 92.3783 127.008C92.676 127.107 92.9736 127.206 93.2713 127.305C93.6682 127.405 94.0651 127.504 94.5612 127.504C95.4543 127.504 96.0496 127.405 96.3473 127.107C96.7442 126.809 96.9426 126.412 96.9426 125.916C96.9426 125.718 96.9426 125.519 96.8434 125.321C96.7442 125.122 96.645 125.023 96.4465 124.825C96.2481 124.726 95.9504 124.527 95.6527 124.428C95.355 124.329 94.8589 124.13 94.3628 124.031C93.7674 123.833 93.2713 123.733 92.7752 123.535C92.3783 123.336 91.9814 123.138 91.6837 122.94C91.386 122.741 91.1876 122.443 91.0884 122.146C90.9892 121.848 90.8899 121.55 90.8899 121.153C90.8899 120.26 91.1876 119.566 91.8822 119.169C92.5767 118.673 93.4698 118.474 94.6605 118.474C95.2558 118.474 95.8512 118.574 96.2481 118.673C96.7442 118.772 97.0419 118.871 97.3395 118.971C97.6372 119.07 97.9349 119.268 98.2326 119.467L97.4388 120.558C97.2403 120.459 97.0419 120.26 96.7442 120.161C96.5457 120.062 96.2481 119.963 95.8512 119.864C95.4543 119.764 95.0574 119.764 94.6605 119.764C93.9659 119.764 93.4698 119.864 92.9736 120.161C92.4775 120.459 92.3783 120.757 92.3783 121.253C92.3783 121.451 92.3783 121.65 92.4775 121.749C92.5767 121.848 92.676 122.047 92.8744 122.146C93.0729 122.245 93.3705 122.443 93.6682 122.543C93.9659 122.642 94.462 122.84 94.9581 122.94C95.6527 123.138 96.1488 123.336 96.645 123.535C97.0419 123.733 97.4388 123.932 97.7364 124.229C98.0341 124.527 98.2326 124.726 98.3318 125.023C98.431 125.321 98.5302 125.718 98.5302 126.016C98.5302 126.412 98.431 126.809 98.3318 127.206C98.1333 127.603 97.9349 127.901 97.6372 128.099C97.3395 128.397 96.9426 128.595 96.4465 128.695C95.9504 128.893 95.355 128.893 94.7597 128.893C94.0651 128.893 93.569 128.794 93.0729 128.695C92.5767 128.595 92.1798 128.397 91.8822 128.298C91.4853 128.099 91.1876 127.901 90.9891 127.702L91.5845 126.512Z" fill="#404349"/>
<path d="M114.704 122.642H116.986V123.634H114.704V125.817H113.712V123.634H111.429V122.642H113.712V120.36H114.704V122.642Z" fill="#404349"/>
<path d="M133.06 118.574H133.358L138.319 128.595H136.732L135.938 127.008H130.481L129.687 128.595H128.099L133.06 118.574ZM133.259 121.253H133.06L131.076 125.519L130.977 125.718H135.243L135.144 125.519L133.259 121.253Z" fill="#404349"/>
<path d="M150.425 124.229H145.166V127.305H151.219V128.595H143.876V118.574H151.318V119.864H145.265V123.039H150.524V124.229H150.425Z" fill="#404349"/>
<path d="M157.47 126.512C157.668 126.71 157.966 126.909 158.264 127.008C158.561 127.107 158.859 127.206 159.157 127.305C159.553 127.405 159.95 127.504 160.447 127.504C161.34 127.504 161.935 127.405 162.233 127.107C162.629 126.809 162.828 126.412 162.828 125.916C162.828 125.718 162.828 125.519 162.729 125.321C162.629 125.122 162.53 125.023 162.332 124.825C162.133 124.726 161.836 124.527 161.538 124.428C161.24 124.329 160.744 124.13 160.248 124.031C159.653 123.833 159.157 123.733 158.66 123.535C158.264 123.336 157.867 123.138 157.569 122.94C157.271 122.741 157.073 122.443 156.974 122.146C156.874 121.848 156.775 121.55 156.775 121.153C156.775 120.26 157.073 119.566 157.767 119.169C158.462 118.673 159.355 118.474 160.546 118.474C161.141 118.474 161.736 118.574 162.133 118.673C162.629 118.772 162.927 118.871 163.225 118.971C163.522 119.07 163.82 119.268 164.118 119.467L163.324 120.558C163.126 120.459 162.927 120.26 162.629 120.161C162.431 120.062 162.133 119.963 161.736 119.864C161.34 119.764 160.943 119.764 160.546 119.764C159.851 119.764 159.355 119.864 158.859 120.161C158.462 120.459 158.264 120.757 158.264 121.253C158.264 121.451 158.264 121.65 158.363 121.749C158.462 121.848 158.561 122.047 158.76 122.146C158.958 122.245 159.256 122.443 159.553 122.543C159.851 122.642 160.347 122.84 160.843 122.94C161.538 123.138 162.034 123.336 162.53 123.535C162.927 123.733 163.324 123.932 163.622 124.229C163.919 124.527 164.118 124.726 164.217 125.023C164.316 125.321 164.415 125.718 164.415 126.016C164.415 126.412 164.316 126.809 164.217 127.206C164.019 127.603 163.82 127.901 163.522 128.099C163.225 128.397 162.828 128.595 162.332 128.695C161.836 128.893 161.24 128.893 160.645 128.893C159.95 128.893 159.454 128.794 158.958 128.695C158.462 128.595 158.065 128.397 157.767 128.298C157.371 128.099 157.073 127.901 156.874 127.702L157.47 126.512Z" fill="#404349"/>
<path d="M169.476 118.574H177.712V119.864H174.239V128.595H172.85V119.864H169.377V118.574H169.476Z" fill="#404349"/>
<path d="M192 128.595H190.611V124.329H184.856V128.595H183.467V118.574H184.856V123.039H190.611V118.574H192V128.595Z" fill="#404349"/>
<path d="M205.594 124.229H200.335V127.305H206.388V128.595H198.946V118.574H206.388V119.864H200.335V123.039H205.594V124.229Z" fill="#404349"/>
<path d="M211.349 118.574H219.585V119.864H216.112V128.595H214.722V119.864H211.349V118.574Z" fill="#404349"/>
<path d="M226.828 128.595H225.439V118.574H226.828V128.595Z" fill="#404349"/>
<path d="M241.811 127.504C241.612 127.702 241.315 127.901 240.918 128.099C240.62 128.298 240.223 128.397 239.826 128.496C239.429 128.595 238.834 128.695 238.239 128.695C237.445 128.695 236.75 128.595 236.056 128.298C235.46 128 234.865 127.702 234.369 127.206C233.873 126.71 233.575 126.214 233.278 125.519C232.98 124.825 232.881 124.229 232.881 123.535C232.881 122.84 232.98 122.146 233.278 121.451C233.575 120.856 233.873 120.26 234.369 119.764C234.865 119.268 235.361 118.971 236.056 118.673C236.651 118.375 237.445 118.276 238.239 118.276C238.834 118.276 239.33 118.375 239.826 118.474C240.223 118.574 240.62 118.772 240.918 118.871C241.216 119.07 241.513 119.268 241.811 119.467L241.017 120.558C240.819 120.36 240.521 120.161 240.322 120.062C240.124 119.963 239.826 119.864 239.529 119.665C239.231 119.566 238.834 119.467 238.437 119.467C237.842 119.467 237.346 119.566 236.85 119.764C236.353 119.963 235.957 120.26 235.659 120.558C235.361 120.955 235.064 121.352 234.865 121.848C234.667 122.344 234.567 122.84 234.567 123.336C234.567 123.833 234.667 124.428 234.865 124.825C235.064 125.321 235.361 125.718 235.659 126.115C235.957 126.512 236.453 126.71 236.85 126.909C237.346 127.107 237.842 127.206 238.437 127.206C238.834 127.206 239.231 127.107 239.529 127.008C239.826 126.909 240.124 126.809 240.322 126.611C240.62 126.512 240.819 126.313 241.017 126.115L241.811 127.504Z" fill="#404349"/>
<path d="M247.764 126.512C247.963 126.71 248.26 126.909 248.558 127.008C248.856 127.107 249.153 127.206 249.451 127.305C249.848 127.405 250.245 127.504 250.741 127.504C251.634 127.504 252.229 127.405 252.527 127.107C252.924 126.809 253.122 126.412 253.122 125.916C253.122 125.718 253.122 125.519 253.023 125.321C252.924 125.122 252.825 125.023 252.626 124.825C252.428 124.726 252.13 124.527 251.833 124.428C251.535 124.329 251.039 124.13 250.543 124.031C249.947 123.833 249.451 123.733 248.955 123.535C248.558 123.336 248.161 123.138 247.864 122.94C247.566 122.741 247.367 122.443 247.268 122.146C247.169 121.848 247.07 121.55 247.07 121.153C247.07 120.26 247.367 119.566 248.062 119.169C248.757 118.673 249.65 118.474 250.84 118.474C251.436 118.474 252.031 118.574 252.428 118.673C252.924 118.772 253.222 118.871 253.519 118.971C253.817 119.07 254.115 119.268 254.412 119.467L253.619 120.558C253.42 120.459 253.222 120.26 252.924 120.161C252.726 120.062 252.428 119.963 252.031 119.864C251.634 119.764 251.237 119.764 250.84 119.764C250.146 119.764 249.65 119.864 249.153 120.161C248.757 120.459 248.558 120.757 248.558 121.253C248.558 121.451 248.558 121.65 248.657 121.749C248.757 121.848 248.856 122.047 249.054 122.146C249.253 122.245 249.55 122.443 249.848 122.543C250.146 122.642 250.642 122.84 251.138 122.94C251.833 123.138 252.329 123.336 252.825 123.535C253.222 123.733 253.619 123.932 253.916 124.229C254.214 124.527 254.412 124.726 254.512 125.023C254.611 125.321 254.71 125.718 254.71 126.016C254.71 126.412 254.611 126.809 254.512 127.206C254.313 127.603 254.115 127.901 253.817 128.099C253.519 128.397 253.122 128.595 252.626 128.695C252.13 128.893 251.535 128.893 250.94 128.893C250.245 128.893 249.749 128.794 249.253 128.695C248.757 128.595 248.36 128.397 248.062 128.298C247.665 128.099 247.367 127.901 247.169 127.702L247.764 126.512Z" fill="#404349"/>
</svg>
